<svg xmlns="http://www.w3.org/2000/svg" viewBox="0 0 64 64" role="img" aria-label="Reminder lightbulb">
  <g fill="none" stroke="#F6BD3A" stroke-width="4" stroke-linecap="round"><path d="M32 9v5"/><path d="m15.7 18.7 3.6 3.6"/><path d="M48.3 18.7 44.7 22.3"/><path d="M11 33h5"/><path d="M53 33h-5"/></g>
  <path d="M32 17c-8.3 0-15 6.6-15 14.8 0 5.3 2.7 9 6.4 11.9 1.8 1.4 2.6 3.4 2.6 5.3h12c0-1.9.8-3.9 2.6-5.3 3.7-2.9 6.4-6.6 6.4-11.9C47 23.6 40.3 17 32 17Z" fill="#F8C847"/>
  <path d="M26.5 52h11" stroke="#4B5563" stroke-width="5" stroke-linecap="round"/><path d="M28.5 57h7" stroke="#4B5563" stroke-width="4" stroke-linecap="round"/>
  <path d="M25.5 34.5c.3-3.7 3-6.4 6.5-6.4" fill="none" stroke="#FFF3BE" stroke-width="3.5" stroke-linecap="round"/>
</svg>
